HIERARCHY
ROOT Hip
{
	OFFSET 0 1.131 0.0052
	CHANNELS 6 Xposition Yposition Zposition Xrotation Yrotation Zrotation
	JOINT Abdomen
	{
		OFFSET 0 -0.047353 -0.05
		CHANNELS 3 Xrotation Zrotation Yrotation
		JOINT Chest
		{
			OFFSET 0 0.132153 0.007439
			CHANNELS 3 Xrotation Zrotation Yrotation
			JOINT Neck
			{
				OFFSET 0 0.3078 0.006161
				CHANNELS 3 Xrotation Zrotation Yrotation
				JOINT Head_comp
				{
					OFFSET 0 0.0884 0.013
					CHANNELS 3 Xrotation Yrotation Zrotation
					End Site
					{
						OFFSET -0 0.156 0.0624
					}
				}
			}
			JOINT Left_Collar
			{
				OFFSET 0.02282 0.250342 0.017193
				CHANNELS 2 Yrotation Zrotation
				JOINT Left_Shoulder
				{
					OFFSET 0.15421 0 0
					CHANNELS 3 Xrotation Yrotation Zrotation
					JOINT Left_Forearm
					{
						OFFSET 0.265212 0 0
						CHANNELS 2 Yrotation Xrotation
						JOINT Left_Hand
						{
							OFFSET 0.27571 0 0
							CHANNELS 2 Zrotation Yrotation
							JOINT L1ProxPhalanx
							{
								OFFSET 0.014142 0.001733 0.014142
								CHANNELS 3 Yrotation Zrotation Xrotation
								JOINT L1MidPhalanx
								{
									OFFSET 0.04 0 0
									CHANNELS 1 Zrotation
									JOINT L1DistPhalanx
									{
										OFFSET 0.035 0 0
										CHANNELS 1 Zrotation
										End Site
										{
											OFFSET 0.029 -0 -0
										}
									}
								}
							}
							JOINT L2ProxPhalanx
							{
								OFFSET 0.0821037 0.001578 0.0219996
								CHANNELS 2 Yrotation Zrotation
								JOINT L2MidPhalanx
								{
									OFFSET 0.04 0 0
									CHANNELS 1 Zrotation
									JOINT L2DistPhalanx
									{
										OFFSET 0.028 0 0
										CHANNELS 1 Zrotation
										End Site
										{
											OFFSET 0.02 -0 -0
										}
									}
								}
							}
							JOINT L3ProxPhalanx
							{
								OFFSET 0.083 0 0
								CHANNELS 2 Yrotation Zrotation
								JOINT L3MidPhalanx
								{
									OFFSET 0.053 0 0
									CHANNELS 1 Zrotation
									JOINT L3DistPhalanx
									{
										OFFSET 0.03 0 0
										CHANNELS 1 Zrotation
										End Site
										{
											OFFSET 0.023 -0 -0
										}
									}
								}
							}
							JOINT L4ProxPhalanx
							{
								OFFSET 0.077274 -0.000761 -0.0207055
								CHANNELS 2 Yrotation Zrotation
								JOINT L4MidPhalanx
								{
									OFFSET 0.05 0 0
									CHANNELS 1 Zrotation
									JOINT L4DistPhalanx
									{
										OFFSET 0.03 0 0
										CHANNELS 1 Zrotation
										End Site
										{
											OFFSET 0.023 -0 -0
										}
									}
								}
							}
							JOINT L5ProxPhalanx
							{
								OFFSET 0.0675499 -0.001644 -0.039
								CHANNELS 2 Yrotation Zrotation
								JOINT L5MidPhalanx
								{
									OFFSET 0.04 0 0
									CHANNELS 1 Zrotation
									JOINT L5DistPhalanx
									{
										OFFSET 0.021 0 0
										CHANNELS 1 Zrotation
										End Site
										{
											OFFSET 0.022 -0 -0
										}
									}
								}
							}
						}
					}
				}
			}
			JOINT Right_Collar
			{
				OFFSET -0.02282 0.250342 0.017193
				CHANNELS 2 Yrotation Zrotation
				JOINT Right_Shoulder
				{
					OFFSET -0.15421 0 0
					CHANNELS 3 Xrotation Yrotation Zrotation
					JOINT Right_Forearm
					{
						OFFSET -0.265212 0 0
						CHANNELS 2 Yrotation Xrotation
						JOINT Right_Hand
						{
							OFFSET -0.27571 3e-006 0
							CHANNELS 2 Zrotation Yrotation
							JOINT R1ProxPhalanx
							{
								OFFSET -0.014142 0.001733 0.014142
								CHANNELS 3 Yrotation Zrotation Xrotation
								JOINT R1MidPhalanx
								{
									OFFSET -0.04 0 0
									CHANNELS 1 Zrotation
									JOINT R1DistPhalanx
									{
										OFFSET -0.035 0 0
										CHANNELS 1 Zrotation
										End Site
										{
											OFFSET -0.029 -0 -0
										}
									}
								}
							}
							JOINT R2ProxPhalanx
							{
								OFFSET -0.0821037 0.001578 0.0219996
								CHANNELS 2 Yrotation Zrotation
								JOINT R2MidPhalanx
								{
									OFFSET -0.04 0 0
									CHANNELS 1 Zrotation
									JOINT R2DistPhalanx
									{
										OFFSET -0.028 0 0
										CHANNELS 1 Zrotation
										End Site
										{
											OFFSET -0.02 -0 -0
										}
									}
								}
							}
							JOINT R3ProxPhalanx
							{
								OFFSET -0.083 0 0
								CHANNELS 2 Yrotation Zrotation
								JOINT R3MidPhalanx
								{
									OFFSET -0.053 0 0
									CHANNELS 1 Zrotation
									JOINT R3DistPhalanx
									{
										OFFSET -0.03 0 0
										CHANNELS 1 Zrotation
										End Site
										{
											OFFSET -0.023 -0 -0
										}
									}
								}
							}
							JOINT R4ProxPhalanx
							{
								OFFSET -0.077274 -0.000761 -0.0207055
								CHANNELS 2 Yrotation Zrotation
								JOINT R4MidPhalanx
								{
									OFFSET -0.05 0 0
									CHANNELS 1 Zrotation
									JOINT R4DistPhalanx
									{
										OFFSET -0.03 0 0
										CHANNELS 1 Zrotation
										End Site
										{
											OFFSET -0.023 -0 -0
										}
									}
								}
							}
							JOINT R5ProxPhalanx
							{
								OFFSET -0.0675499 -0.001644 -0.039
								CHANNELS 2 Yrotation Zrotation
								JOINT R5MidPhalanx
								{
									OFFSET -0.04 0 0
									CHANNELS 1 Zrotation
									JOINT R5DistPhalanx
									{
										OFFSET -0.021 0 0
										CHANNELS 1 Zrotation
										End Site
										{
											OFFSET -0.022 -0 -0
										}
									}
								}
							}
						}
					}
				}
			}
		}
	}
	JOINT Left_Thigh
	{
		OFFSET 0.1118 -0.1612 -0.0442
		CHANNELS 3 Xrotation Zrotation Yrotation
		JOINT Left_Shin
		{
			OFFSET 0 -0.477856 0
			CHANNELS 1 Xrotation
			JOINT Left_Foot
			{
				OFFSET 0 -0.431952 0
				CHANNELS 2 Xrotation Zrotation
				JOINT Left_Toe
				{
					OFFSET 0 -0.0442 0.119
					CHANNELS 1 Xrotation
					End Site
					{
						OFFSET -0 -0 0.07
					}
				}
			}
		}
	}
	JOINT Right_Thigh
	{
		OFFSET -0.1118 -0.1612 -0.0442
		CHANNELS 3 Xrotation Zrotation Yrotation
		JOINT Right_Shin
		{
			OFFSET 0 -0.477856 0
			CHANNELS 1 Xrotation
			JOINT Right_Foot
			{
				OFFSET 0 -0.431952 0
				CHANNELS 2 Xrotation Zrotation
				JOINT Right_Toe
				{
					OFFSET 0 -0.0442 0.119
					CHANNELS 1 Xrotation
					End Site
					{
						OFFSET -0 -0 0.07
					}
				}
			}
		}
	}
}
MOTION
Frames: 5
Frame Time: 0.009975
-0.0998606 -0.0601601 0.051775 7.76969e-013 7.17547e-008 -5.10926e-006 0 0 0 0 0 0 0 0 0 0 0 0 0 0 -0 0 -0 0 0 0 0 -27.5605 -21.5864 106.421 -7.48048 -7.22872 0.359187 -7.00922 -0.766388 -1.05378 4.72541 -4.46271 -1.39298 -3.41729 8.71841 0.0688695 -13.7112 -8.22532 12.9011 1.57409 -20.5968 -30.2417 0 0 -0 0 -0 0 0 0 0 37.9386 28.008 73.698 26.2405 28.4472 13.118 18.2167 29.0248 19.6359 0 22.4358 32.6146 28.1246 -8.63175 30.7051 32.2053 23.7634 -7.83088 26.7354 35.1526 30.0193 0.793206 -0.751911 -0.0104099 0.0240216 -0.81716 0.751988 0 0.804612 -0.751909 -0.0105596 0 -0.804543 0.751988 0 
-0.0998606 -0.0601601 0.051775 7.76969e-013 7.17547e-008 -5.10926e-006 0 0 0 0 0 0 0 0 0 0 0 0 0 0 -0 0 -0 0 0 0 0 -27.5605 -21.5864 106.421 -7.48048 -7.22872 0.359187 -7.00922 -0.766388 -1.05378 4.72541 -4.46271 -1.39298 -3.41729 8.71841 0.0688695 -13.7112 -8.22532 12.9011 1.57409 -20.5968 -30.2417 0 0 -0 0 -0 0 0 0 0 37.9386 28.008 73.698 26.2405 28.4472 13.118 18.2167 29.0248 19.6359 0 22.4358 32.6146 28.1246 -8.63175 30.7051 32.2053 23.7634 -7.83088 26.7354 35.1526 30.0193 0.793206 -0.751911 -0.0104099 0.0240216 -0.81716 0.751988 0 0.804612 -0.751909 -0.0105596 0 -0.804543 0.751988 0 
-0.101405 -0.0601749 0.0539348 4.12357e-013 8.38825e-008 -5.08342e-006 0 -0 0 0 -0 0 0 -0 0 -0.710517 0.29112 -9.07084e-006 8.2659 -25.4927 14.7556 -13.6339 -28.8483 -101.87 -2.29682 -4.4471 -7.22965 -27.6886 -21.6315 106.298 -7.61808 -7.29258 0.352484 -7.12417 -0.962557 -1.12351 4.70224 -4.60032 -1.58601 -3.49021 8.68326 -0.0918153 -13.8427 -8.2742 12.8672 1.44639 -20.6638 -30.1905 -8.2659 25.4927 14.7556 13.6339 28.8483 101.87 -2.29682 4.4471 7.22965 27.6886 21.6315 106.298 7.61808 7.29258 -0.352484 7.12417 0.962557 1.12351 -4.70224 4.60032 1.58601 3.49021 -8.68326 0.0918153 13.8427 8.2742 -12.8672 -1.44639 20.6638 30.1905 0.929287 -0.654627 -0.0106449 0.0239015 -0.953128 0.654719 0 0.940635 -0.654625 -0.0107749 2.40276e-006 -0.940576 0.654719 0 
-0.10135 -0.060172 0.053775 4.14448e-013 8.4304e-008 -5.10897e-006 0 -0 0 0 -0 0 0 -0 0 -0.713351 0.291265 -6.40897e-011 8.30674 -25.6205 14.8002 -13.1443 -27.4216 -102.765 -2.30512 -4.46941 -7.26596 -27.5605 -21.5864 106.421 -7.48048 -7.22872 0.359187 -7.00922 -0.766388 -1.05378 4.72541 -4.46271 -1.39298 -3.41729 8.71841 0.0688695 -13.7112 -8.22532 12.9011 1.57409 -20.5968 -30.2417 -8.30674 25.6205 14.8002 13.1443 27.4216 102.765 -2.30512 4.46941 7.26596 27.5605 21.5864 106.421 7.48048 7.22872 -0.359187 7.00922 0.766388 1.05378 -4.72541 4.46271 1.39298 3.41729 -8.71841 -0.0688695 13.7112 8.22532 -12.9011 -1.57409 20.5968 30.2417 0.919162 -0.658113 -0.0105585 0.0240216 -0.943123 0.658203 0 0.930567 -0.658111 -0.0106895 2.41484e-006 -0.930508 0.658203 0 
-0.10135 -0.0601722 0.0537834 3.27917e-013 8.29747e-008 -5.10899e-006 0 -0 0 0 -0 0 0 -0 0 -0.713345 0.291253 4.03787e-017 8.30674 -25.6205 14.7998 -13.1404 -27.4132 -102.767 -2.30512 -4.46941 -7.26596 -27.5605 -21.5864 106.421 -7.48048 -7.22872 0.359187 -7.00922 -0.766388 -1.05378 4.72541 -4.46271 -1.39298 -3.41729 8.71841 0.0688695 -13.7112 -8.22532 12.9011 1.57409 -20.5968 -30.2417 -8.30674 25.6205 14.7998 13.1404 27.4132 102.767 -2.30512 4.46941 7.26596 27.5605 21.5864 106.421 7.48048 7.22872 -0.359187 7.00922 0.766388 1.05378 -4.72541 4.46271 1.39298 3.41729 -8.71841 -0.0688695 13.7112 8.22532 -12.9011 -1.57409 20.5968 30.2417 0.919695 -0.658117 -0.0105647 0.0240216 -0.943656 0.658207 0 0.9311 -0.658115 -0.0106957 2.41484e-006 -0.93104 0.658207 0 
